<svg xmlns="http://www.w3.org/2000/svg" version="1.1" xmlns:xlink="http://www.w3.org/1999/xlink" xmlns:svgjs="http://svgjs.com/svgjs" width="16" height="16"><svg width="16" height="16" viewBox="0 0 23 29" fill="none" xmlns="http://www.w3.org/2000/svg">
      <path d="M0.408545 6.29464C-0.145749 6.82338 -0.12653 7.62541 0.408545 8.13494L6.44792 14.0348C6.68839 14.2753 7.04159 14.4253 7.35002 14.4253C8.07447 14.4253 8.5765 13.9158 8.5765 13.1988C8.5765 12.8594 8.45627 12.5744 8.21908 12.3436L5.71642 9.92932L3.89743 8.35478L6.40618 8.45298H21.6532C22.366 8.45298 22.8818 7.93713 22.8818 7.21479C22.8818 6.50206 22.366 5.9862 21.6532 5.9862H6.40618L3.89743 6.0748L5.71642 4.50986L8.21908 2.08595C8.45627 1.8551 8.5765 1.57971 8.5765 1.23073C8.5765 0.513774 8.07447 0.013855 7.35002 0.013855C7.04159 0.013855 6.68839 0.154245 6.44792 0.394712L0.408545 6.29464ZM22.485 21.7966C23.0276 21.2679 23.018 20.4659 22.485 19.9488L16.4456 14.0468C16.2052 13.8159 15.8499 13.6659 15.5339 13.6659C14.8074 13.6659 14.3171 14.168 14.3171 14.8828C14.3171 15.2318 14.4277 15.5168 14.6628 15.738L17.1771 18.1619L18.9961 19.7365L16.4874 19.6383H1.23823C0.525497 19.6383 3.19522e-05 20.1541 3.19522e-05 20.8669C3.19522e-05 21.5892 0.525497 22.1072 1.23823 22.1072H16.4874L18.9961 22.009L17.1771 23.5814L14.6628 25.9978C14.4277 26.2287 14.3171 26.5137 14.3171 26.8626C14.3171 27.5775 14.8074 28.0795 15.5339 28.0795C15.8499 28.0795 16.2052 27.9295 16.4456 27.6987L22.485 21.7966Z" fill="#64ffda"></path>
    </svg><style>@media (prefers-color-scheme: light) { :root { filter: none; } }
@media (prefers-color-scheme: dark) { :root { filter: contrast(0.8333333333333334) brightness(1.7); } }
</style></svg>